<svg width="442" height="369" viewBox="0 0 442 369" fill="none" xmlns="http://www.w3.org/2000/svg">
<path d="M289.379 87.2139C289.27 87.223 289.16 87.223 289.05 87.2139C289.16 87.223 289.27 87.223 289.379 87.2139V87.2139Z" fill="#006B99"/>
<path d="M289.776 87.1727C289.844 87.1635 289.912 87.1474 289.977 87.1248C289.912 87.1474 289.844 87.1635 289.776 87.1727Z" fill="#006B99"/>
<path d="M288.783 87.1248C288.848 87.1477 288.914 87.1637 288.982 87.1727C288.914 87.1637 288.848 87.1477 288.783 87.1248Z" fill="#006B99"/>
<path d="M289.696 26.2263C301.33 26.225 312.703 29.6726 322.377 36.1333C332.051 42.594 339.591 51.7774 344.044 62.5222C348.496 73.2671 349.662 85.0906 347.392 96.4976C345.123 107.905 339.521 118.383 331.295 126.607C323.068 134.831 312.587 140.431 301.177 142.7C289.766 144.968 277.939 143.803 267.191 139.352C256.443 134.9 247.257 127.363 240.794 117.692C234.332 108.021 230.883 96.6513 230.884 85.0209V85.0209C230.885 69.428 237.082 54.474 248.111 43.4482C259.14 32.4223 274.099 26.2275 289.696 26.2263V26.2263ZM339.003 85.0277C339.007 75.2751 336.117 65.7406 330.699 57.63C325.282 49.5193 317.58 43.1969 308.568 39.4622C299.556 35.7276 289.639 34.7484 280.07 36.6486C270.502 38.5488 261.712 43.243 254.812 50.1376C247.912 57.0321 243.213 65.8173 241.307 75.3821C239.402 84.947 240.377 94.8618 244.109 103.873C247.84 112.884 254.161 120.586 262.272 126.006C270.382 131.425 279.918 134.318 289.674 134.32H289.687C296.165 134.323 302.58 133.05 308.565 130.574C314.55 128.097 319.989 124.466 324.57 119.888C329.151 115.31 332.785 109.874 335.264 103.892C337.743 97.9089 339.018 91.4965 339.017 85.0209L339.003 85.0277Z" fill="#F7CEDC"/>
<path d="M289.379 87.2139C289.484 87.2229 289.589 87.2229 289.694 87.2139C289.589 87.2229 289.484 87.2229 289.379 87.2139V87.2139Z" fill="#006B99"/>
<path d="M290.689 86.7598L290.388 86.9606C290.492 86.8998 290.593 86.8327 290.689 86.7598V86.7598Z" fill="#006B99"/>
<path d="M287.315 85.5068C287.324 85.5745 287.34 85.6411 287.363 85.7054C287.34 85.641 287.324 85.5745 287.315 85.5068V85.5068Z" fill="#006B99"/>
<path d="M289.977 87.125C290.106 87.0858 290.232 87.0378 290.354 86.9812C290.233 87.0405 290.107 87.0886 289.977 87.125V87.125Z" fill="#006B99"/>
<path d="M287.274 85.1099C287.263 85.2145 287.263 85.3201 287.274 85.4248C287.265 85.32 287.265 85.2146 287.274 85.1099Z" fill="#006B99"/>
<path d="M290.867 86.5954L290.689 86.7619C290.592 86.8334 290.492 86.8996 290.388 86.9605H290.354C290.232 87.0171 290.106 87.0651 289.977 87.1043C289.912 87.1269 289.844 87.143 289.776 87.1522H289.696C289.591 87.1612 289.486 87.1612 289.381 87.1522C289.272 87.1613 289.162 87.1613 289.052 87.1522H288.984C288.916 87.1432 288.85 87.1272 288.785 87.1043C288.447 87.007 288.14 86.8247 287.893 86.5748C287.741 86.423 287.612 86.25 287.509 86.0614C287.452 85.9396 287.404 85.8138 287.366 85.6848C287.343 85.6205 287.327 85.554 287.318 85.4863C287.315 85.4589 287.315 85.4315 287.318 85.4041C287.306 85.2995 287.306 85.1939 287.318 85.0892C287.317 84.8129 287.372 84.5392 287.478 84.2839C287.583 84.0286 287.738 83.7966 287.934 83.6013L291.522 80.0002V85.0892C291.523 85.3718 291.465 85.6514 291.352 85.9106C291.239 86.1698 291.074 86.4029 290.867 86.5954V86.5954Z" fill="#006B99"/>
<path d="M291.484 47.6956V79.1718C290.093 78.7594 288.602 78.854 287.274 79.4388V47.6956C287.274 47.1376 287.496 46.6024 287.891 46.2078C288.286 45.8132 288.821 45.5916 289.379 45.5916V45.5916C289.656 45.5913 289.929 45.6455 290.185 45.7511C290.44 45.8567 290.672 46.0117 290.868 46.2071C291.063 46.4026 291.218 46.6347 291.324 46.8901C291.43 47.1455 291.484 47.4192 291.484 47.6956Z" fill="#006B99"/>
<path d="M291.484 79.1719V80.03L287.891 83.6219C287.695 83.8173 287.54 84.0492 287.434 84.3045C287.329 84.5598 287.274 84.8335 287.274 85.1098V79.4389C288.602 78.8541 290.093 78.7595 291.484 79.1719V79.1719Z" fill="#006B99"/>
<path d="M287.363 85.7056C287.402 85.8345 287.45 85.9604 287.507 86.0821C287.45 85.9604 287.402 85.8345 287.363 85.7056V85.7056Z" fill="#006B99"/>
<path d="M307.248 70.2263L295.2 82.2823C294.546 80.9913 293.456 79.9735 292.123 79.4092L304.264 67.2642C304.455 67.0511 304.687 66.8791 304.947 66.7586C305.206 66.6381 305.487 66.5717 305.773 66.5634C306.059 66.5551 306.344 66.6051 306.61 66.7103C306.876 66.8155 307.117 66.9738 307.32 67.1754C307.523 67.3771 307.683 67.6179 307.789 67.8832C307.896 68.1486 307.948 68.4328 307.941 68.7187C307.934 69.0046 307.869 69.2861 307.75 69.5461C307.631 69.806 307.46 70.039 307.248 70.2309V70.2263Z" fill="#006B99"/>
<path d="M292.123 79.3979C293.456 79.9622 294.546 80.98 295.2 82.271L290.863 86.6069C291.06 86.4135 291.217 86.1822 291.323 85.9269C291.428 85.6717 291.482 85.3977 291.479 85.1213V80.0301L292.111 79.3979H292.123Z" fill="#006B99"/>
<path d="M295.859 85.0208C295.861 86.1228 295.564 87.2047 295.001 88.1522C294.438 89.0996 293.63 89.8773 292.661 90.4031C291.692 90.929 290.599 91.1834 289.498 91.1394C288.396 91.0955 287.327 90.7548 286.403 90.1535C285.48 89.5522 284.736 88.7125 284.25 87.7233C283.764 86.734 283.555 85.6319 283.644 84.5336C283.733 83.4352 284.118 82.3813 284.757 81.4833C285.396 80.5853 286.265 79.8766 287.274 79.4321V85.103C287.265 85.2078 287.265 85.3131 287.274 85.4179C287.272 85.4453 287.272 85.4727 287.274 85.5001C287.283 85.5677 287.299 85.6342 287.322 85.6986C287.36 85.8276 287.408 85.9534 287.466 86.0752C287.568 86.2638 287.697 86.4368 287.849 86.5886C288.097 86.8385 288.404 87.0208 288.742 87.1181C288.806 87.141 288.873 87.157 288.94 87.166H289.009C289.118 87.1751 289.228 87.1751 289.338 87.166C289.442 87.175 289.548 87.175 289.653 87.166H289.735C289.803 87.1568 289.871 87.1407 289.936 87.1181C290.065 87.0817 290.191 87.0336 290.312 86.9743H290.347L290.648 86.7757L290.837 86.6183L295.175 82.2824C295.614 83.129 295.849 84.067 295.859 85.0208Z" fill="#CCEFF6"/>
<path d="M128.536 191.195C129.532 190.196 130.716 189.403 132.02 188.863C133.323 188.323 134.721 188.046 136.133 188.048C138.813 188.101 141.388 189.101 143.401 190.871L143.736 191.195C144.736 192.193 145.528 193.378 146.068 194.682C146.609 195.987 146.886 197.385 146.884 198.797C146.883 200.037 146.67 201.268 146.254 202.437C145.012 201.312 143.705 200.261 142.339 199.29C141.826 198.93 141.223 198.718 140.597 198.677C139.971 198.636 139.346 198.768 138.79 199.058C138.234 199.348 137.768 199.785 137.444 200.322C137.119 200.859 136.948 201.474 136.95 202.101H135.703C135.708 201.307 135.436 200.536 134.935 199.92C134.433 199.304 133.733 198.881 132.954 198.725C132.175 198.568 131.366 198.688 130.665 199.062C129.964 199.437 129.416 200.043 129.113 200.778C129.065 200.887 128.832 201.462 128.49 202.348L127.963 202.101V194.374H126.337C126.87 193.189 127.615 192.112 128.536 191.195V191.195Z" fill="#006B99"/>
<path d="M146.277 202.436C145.475 204.657 143.964 206.55 141.976 207.824C140.861 206.777 139.68 205.804 138.438 204.91C137.681 204.405 137.156 203.621 136.978 202.729C136.8 201.837 136.984 200.911 137.488 200.154C137.993 199.398 138.778 198.873 139.67 198.695C140.563 198.517 141.489 198.7 142.246 199.205L142.362 199.285C143.728 200.258 145.035 201.31 146.277 202.436V202.436Z" fill="#006B99"/>
<path d="M155.787 224.502C156.482 225.474 156.939 226.595 157.122 227.775C157.305 228.956 157.209 230.163 156.841 231.3C156.472 232.424 155.803 233.426 154.906 234.198C154.005 234.97 152.905 235.473 151.733 235.652L151.397 235.706C150.648 235.836 149.929 236.042 149.016 236.284L149.393 235.686C151.925 232.079 153.947 228.139 155.401 223.979L155.787 224.502Z" fill="#CCEFF6"/>
<path d="M146.757 211.937L155.41 223.981C153.956 228.141 151.934 232.081 149.402 235.688L149.026 236.286C146.726 236.893 144.39 237.35 142.031 237.655C141.426 237.744 140.811 237.744 140.205 237.655C141.248 235.757 142.435 233.872 143.629 232.014C146.318 227.765 149.108 223.377 149.197 219.944C149.034 217.164 147.963 214.514 146.147 212.402L146.757 211.937Z" fill="#006B99"/>
<path d="M246.737 249.556C246.778 259.921 229.745 270.806 229.745 270.806L229.211 270.882C228.937 268.976 228.599 267.05 228.215 265.158C232.982 261.881 241.485 255.704 242.183 249.392C242.656 245.149 242.224 242.269 238.816 241.028C242.402 240.604 246.708 241.674 246.737 249.556Z" fill="#CCEFF6"/>
<path d="M419.391 250.213C421.017 257.534 420.25 261.286 417.485 262.826C416.319 263.113 415.12 263.238 413.92 263.198V262.792C417.987 247.178 407.133 248.913 404.321 245.656C401.508 242.4 402.826 235.75 401.581 232.356C400.337 228.963 396.623 228.559 394.663 227.477C391.501 225.729 389.972 221.355 389.91 215.508C389.91 212.808 389.28 210.031 387.531 209.029C382.929 206.405 380.626 214.707 380.537 215.029C379.56 213.015 378.377 211.109 377.006 209.34C376.892 208.799 376.748 208.266 376.574 207.742L377.006 207.598C377.882 204.753 380.201 200.415 383.719 199.057C384.159 198.894 384.621 198.797 385.089 198.769C388.696 198.541 393.763 201.889 394.69 209.333C395.772 217.776 397.429 220.348 399.44 221.3C401.451 222.251 405.147 222.795 406.359 226.181C407.571 229.568 406.222 236.222 409.099 239.479C411.975 242.735 417.757 242.886 419.391 250.213Z" fill="#F7CEDC"/>
<path d="M146.756 211.937L146.119 212.393C144.866 210.752 143.47 209.225 141.949 207.829C143.936 206.555 145.448 204.661 146.249 202.441C150.418 206.184 156.266 212.793 156.026 220.182C155.976 221.47 155.769 222.747 155.41 223.986L146.756 211.937Z" fill="#006B99"/>
<path d="M222.025 242.995C221.67 241.918 221.084 240.93 220.308 240.103C219.532 239.275 218.585 238.627 217.532 238.203C221.132 235.945 225.094 234.324 229.245 233.411C235.71 232.32 248.691 231.943 251.186 242.849C247.141 233.452 236.979 235.809 234.043 236.825C229.92 238.712 225.994 241.005 222.326 243.671H222.155C222.128 243.443 222.084 243.217 222.025 242.995V242.995Z" fill="white"/>
<path d="M385.052 198.79C384.584 198.818 384.123 198.915 383.683 199.077C380.158 200.447 377.846 204.783 376.969 207.619L376.538 207.763C376.045 206.249 375.165 204.891 373.983 203.823C372.801 202.756 371.36 202.018 369.804 201.681C368.908 201.429 367.991 201.261 367.064 201.181C367.41 199.877 368.155 198.713 369.196 197.854C370.237 196.994 371.52 196.482 372.867 196.389C377.045 196.404 381.181 197.218 385.052 198.79V198.79Z" fill="#CCEFF6"/>
<path d="M110.361 162.154C111.763 162.154 113.151 162.43 114.446 162.967C115.741 163.504 116.918 164.29 117.909 165.282C118.901 166.273 119.687 167.45 120.223 168.745C120.759 170.04 121.035 171.428 121.035 172.829C121.035 173.005 121.035 173.181 121.035 173.356C120.69 180.291 120.279 188.902 120.046 194.385H70.0546V188.169L58.5155 172.135C57.8417 171.193 57.4405 170.083 57.3558 168.927C57.271 167.772 57.506 166.615 58.035 165.585C58.5641 164.554 59.3666 163.688 60.3549 163.083C61.3432 162.478 62.479 162.157 63.6379 162.154H110.361Z" fill="#F7CEDC"/>
<path d="M143.396 190.871C141.384 189.1 138.808 188.1 136.128 188.048C136.427 180.669 137.704 173.362 139.926 166.319C140.416 165.085 141.266 164.027 142.365 163.282C143.464 162.538 144.762 162.14 146.09 162.143H151.066C152.228 162.143 153.366 162.464 154.357 163.069C155.348 163.675 156.153 164.542 156.683 165.575C157.213 166.608 157.448 167.767 157.362 168.925C157.276 170.083 156.872 171.195 156.195 172.138L143.396 190.871Z" fill="#F7CEDC"/>
<path d="M338.145 186.615H358.381C357.59 188.964 356.107 191.018 354.127 192.508C352.146 193.998 349.761 194.855 347.285 194.965H329.231C326.755 194.855 324.37 193.998 322.39 192.508C320.41 191.018 318.927 188.963 318.137 186.615H338.145Z" fill="#006B99"/>
<path d="M142.031 237.676C144.39 237.371 146.726 236.913 149.025 236.307C146.195 240.795 143.403 245.382 143.775 248.92C143.823 249.367 143.783 249.819 143.656 250.251C143.529 250.683 143.318 251.085 143.035 251.435C142.753 251.785 142.404 252.076 142.009 252.291C141.614 252.507 141.18 252.642 140.732 252.689C140.608 252.696 140.484 252.696 140.36 252.689C139.511 252.694 138.69 252.383 138.057 251.817C137.425 251.25 137.025 250.469 136.936 249.625C136.764 245.402 137.893 241.229 140.171 237.669C140.787 237.765 141.414 237.767 142.031 237.676V237.676Z" fill="#006B99"/>
<path d="M44.7387 289.841C44.7387 293.563 72.8528 296.573 107.596 296.573C122.984 296.573 137.082 295.984 148 295.003H148.082C147.615 304.382 148.305 313.782 150.137 322.992L149.657 323.116C144.012 325.169 130.903 328.271 107.336 328.271C93.0698 328.307 78.8713 326.315 65.1668 322.353C61.9479 321.387 58.9895 319.705 56.513 317.433C46.727 310.735 44.2251 300.227 44.2251 290.371V289.834L44.7387 289.841Z" fill="#006B99"/>
<path d="M70.0475 202.101C69.055 202.053 68.1192 201.625 67.4338 200.905C66.7485 200.186 66.3662 199.231 66.3662 198.238C66.3662 197.244 66.7485 196.289 67.4338 195.57C68.1192 194.85 69.055 194.422 70.0475 194.374V202.101Z" fill="#006B99"/>
<path d="M217.532 238.219C218.586 238.641 219.534 239.288 220.311 240.116C221.087 240.944 221.672 241.933 222.025 243.011C222.084 243.236 222.127 243.465 222.155 243.696C223.148 251.585 207.468 262.107 186.334 267.557C165.201 273.006 146.434 271.375 143.451 264.02C143.352 263.799 143.272 263.57 143.211 263.335C141.842 258.086 148.375 251.489 159.236 246.005C165.517 242.904 172.109 240.477 178.902 238.767C195.262 234.538 210.23 234.565 217.532 238.219Z" fill="#CCEFF6"/>
<path d="M404.273 245.677C407.12 248.926 417.988 247.192 413.861 262.813V263.212C409.562 263.321 402.636 262.984 399.765 261.738C395.427 259.853 400.114 253.511 399.936 248.714C399.758 243.917 395.081 245.786 391.789 241.343C387.908 236.122 392.302 232.261 389.109 230.795C386.956 229.652 385.131 227.976 383.808 225.928V225.928C383.317 222.136 382.185 218.456 380.462 215.043V215.043C380.551 214.721 382.854 206.419 387.456 209.043C389.205 210.038 389.807 212.822 389.835 215.522C389.896 221.368 391.433 225.743 394.587 227.491C396.548 228.573 400.294 228.986 401.506 232.37C402.719 235.754 401.42 242.413 404.273 245.677Z" fill="#006B99"/>
<path d="M222.99 335.167C222.99 335.167 264.33 338.793 244.398 347.367C220.358 357.718 182.885 354.071 174.293 351.068C164.021 347.463 163.747 343.296 163.74 343.081C169.645 346.694 177.632 348.209 189.256 348.031H189.373C207.372 348.321 216.649 344.551 222.99 335.167Z" fill="#006B99"/>
<path d="M148.437 287.812C148.327 289.314 148.176 291.849 148.08 295.003H147.998C137.075 295.984 122.964 296.566 107.594 296.566C72.8783 296.566 44.7368 293.556 44.7368 289.834C44.7368 286.112 72.8532 283.102 107.596 283.102C123.244 283.102 136.868 283.711 147.868 284.727L148.258 284.601C148.889 286.655 149.589 288.709 150.356 290.724C149.853 290.409 149.428 289.982 149.115 289.477C148.803 288.972 148.61 288.401 148.553 287.81L148.437 287.812Z" fill="#CCEFF6"/>
<path d="M346.196 199.687V200.371H330.329V194.963H346.203L346.196 199.687Z" fill="#F7CEDC"/>
<path d="M155.191 334.487C157.342 337.971 160.267 340.913 163.74 343.083C145.727 349.094 88.3779 347.367 66.3313 340.603C61.8918 339.362 57.9989 336.665 55.2783 332.944C58.7755 334.391 76.131 341.287 107.356 341.287C123.558 341.529 139.699 339.234 155.191 334.487V334.487Z" fill="#006B99"/>
<path d="M376.983 209.353H299.542C299.809 207.497 300.638 205.767 301.918 204.396C303.198 203.024 304.866 202.077 306.7 201.681C309.688 200.688 322.031 200.428 330.322 200.374H346.196C352.923 200.421 362.152 200.602 367.067 201.181C367.994 201.261 368.911 201.428 369.806 201.681C371.363 202.018 372.804 202.756 373.985 203.823C375.167 204.89 376.048 206.249 376.54 207.763C376.718 208.284 376.865 208.815 376.983 209.353V209.353Z" fill="white"/>
<path d="M120.035 194.374H126.337C125.704 195.762 125.379 197.271 125.383 198.797C125.381 199.918 125.554 201.033 125.897 202.101H119.815C119.815 200.668 119.815 199.529 119.863 198.797C119.891 197.856 119.952 196.3 120.035 194.374Z" fill="#006B99"/>
<path d="M135.703 202.101C135.701 202.555 135.61 203.003 135.436 203.422C135.436 203.477 134.441 205.83 133.338 209.169C130.978 208.534 128.905 207.114 127.46 205.143C127.851 204.027 128.209 203.089 128.49 202.348C128.832 201.448 129.065 200.887 129.113 200.778C129.416 200.043 129.964 199.437 130.665 199.062C131.366 198.688 132.175 198.568 132.954 198.725C133.733 198.881 134.433 199.304 134.935 199.92C135.436 200.536 135.708 201.307 135.703 202.101V202.101Z" fill="#006B99"/>
<path d="M127.962 202.101L128.49 202.348C128.209 203.08 127.85 204.027 127.46 205.143C126.782 204.218 126.254 203.191 125.896 202.101H127.962Z" fill="#006B99"/>
<path d="M119.816 228.105C119.828 231.042 118.685 233.866 116.632 235.966C114.579 238.067 111.782 239.276 108.845 239.333C107.603 239.333 106.432 239.374 105.457 239.374C91.3252 239.195 77.2258 237.969 63.2749 235.707L62.9713 235.659C61.7962 235.479 60.6945 234.975 59.79 234.204C58.8855 233.433 58.214 232.425 57.8511 231.293C57.4827 230.158 57.3868 228.952 57.5713 227.773C57.7557 226.594 58.2152 225.475 58.9126 224.506L70.0409 209.007V202.106H119.804C119.768 208.187 119.788 219.586 119.816 228.105Z" fill="#F7CEDC"/>
<path d="M402.415 313.346C402.415 313.346 436.631 321.922 381.213 331.258C326.976 340.386 283.318 327.043 274.11 313.346C274.11 313.346 288.427 327.057 338.254 327.057C394.373 327.043 402.415 313.346 402.415 313.346Z" fill="#006B99"/>
<path d="M225.412 206.542C228.957 205.802 233.845 204.828 236.141 204.595C236.727 204.529 237.318 204.529 237.903 204.595C240.912 204.965 241.627 207.24 239.584 208.454C237.945 209.415 230.345 208.639 225.472 208.016C225.294 207.997 225.13 207.914 225.008 207.784C224.886 207.653 224.815 207.484 224.807 207.305C224.8 207.127 224.857 206.952 224.967 206.812C225.078 206.672 225.235 206.576 225.41 206.542H225.412Z" fill="#F7CEDC"/>
<path d="M228.428 290.507C228.841 289.06 229.197 287.525 229.498 285.914C229.491 285.815 229.507 285.717 229.546 285.626L229.964 285.701C229.964 285.701 232.742 315.507 226.465 328.971C225.476 331.114 224.318 333.174 223.002 335.133C216.66 344.489 207.383 348.286 189.405 348.006H189.288C177.665 348.184 169.677 346.636 163.772 343.056C160.288 340.894 157.35 337.957 155.189 334.473C154.061 332.702 153.055 330.856 152.178 328.948C151.312 327.028 150.635 325.029 150.155 322.979C148.309 313.77 147.619 304.368 148.101 294.989C148.197 291.835 148.348 289.3 148.457 287.799H148.574C148.631 288.39 148.823 288.96 149.136 289.465C149.449 289.971 149.873 290.397 150.377 290.713C155.499 294.743 170.981 297.671 189.277 297.671C207.892 297.691 223.609 294.647 228.428 290.507Z" fill="#F7CEDC"/>
<path d="M146.113 212.395C147.922 214.511 148.993 217.159 149.162 219.938C149.053 223.361 146.284 227.758 143.595 232.007C142.424 233.865 141.237 235.75 140.171 237.649C138.626 237.429 137.209 236.668 136.174 235.5C135.138 234.332 134.553 232.835 134.521 231.275C134.377 224.064 134.247 213.452 134.637 209.415C135.121 209.483 135.61 209.518 136.098 209.518C138.164 209.52 140.185 208.925 141.919 207.804C143.45 209.207 144.854 210.744 146.113 212.395Z" fill="#F7CEDC"/>
<path d="M127.963 194.374V202.101H125.908C125.566 201.033 125.392 199.918 125.395 198.797C125.391 197.271 125.716 195.762 126.349 194.374H127.963Z" fill="#006B99"/>
<path d="M186.334 267.564C207.468 262.114 223.148 251.589 222.155 243.703H222.326C222.326 243.703 223.011 245.581 223.944 248.623C225.647 254.057 227.072 259.573 228.215 265.152C228.599 267.043 228.937 268.969 229.211 270.875C229.532 273.089 229.765 275.282 229.895 277.392C230.081 280.135 229.964 282.89 229.546 285.608C229.554 285.706 229.537 285.805 229.498 285.895C229.197 287.506 228.813 289.042 228.428 290.489C223.634 294.597 207.883 297.673 189.256 297.673C170.96 297.673 155.472 294.745 150.356 290.715C149.589 288.693 148.888 286.607 148.258 284.592C146.191 277.851 144.566 270.982 143.396 264.029H143.451C146.434 271.382 165.228 273.006 186.334 267.564Z" fill="white"/>
<path d="M252.593 248.171C254.615 262.826 229.93 277.381 229.93 277.381H229.862C229.745 275.27 229.512 273.077 229.177 270.864L229.711 270.788C229.711 270.788 246.745 259.917 246.701 249.538C246.701 241.656 242.364 240.585 238.782 240.996C237.315 241.197 235.876 241.563 234.491 242.087C230.978 243.907 227.626 246.024 224.472 248.413L223.91 248.598C222.963 245.556 222.292 243.678 222.292 243.678C225.985 241.039 229.919 238.758 234.043 236.863C236.979 235.848 247.142 233.491 251.187 242.888C251.893 244.577 252.366 246.354 252.593 248.171V248.171Z" fill="white"/>
<path d="M237.913 204.554C243.706 205.033 258.434 212.382 262.226 224.864C267.54 242.365 265.538 266.302 275.851 281.61C277.174 283.6 278.687 285.457 280.369 287.155L280.465 287.059C278.059 267.475 287.528 258.029 287.528 258.029C286.63 253.719 286.625 249.271 287.512 244.959C288.399 240.646 290.159 236.561 292.684 232.954C291.922 224.505 294.366 216.077 299.532 209.346H376.974C378.346 211.115 379.529 213.022 380.505 215.036V215.036C382.232 218.46 383.363 222.152 383.852 225.955C384.149 228.288 384.149 230.649 383.852 232.982C386.372 236.586 388.128 240.667 389.014 244.974C389.899 249.281 389.895 253.724 389.002 258.029C389.002 258.029 398.45 267.475 396.048 287.059C396.048 287.059 404.812 299.398 402.406 313.339C402.406 313.339 394.364 327.05 338.261 327.05C288.427 327.05 274.117 313.339 274.117 313.339C273.38 308.707 273.653 303.97 274.918 299.453C271.678 296.339 268.775 292.892 266.257 289.17C255.985 273.864 260.005 248.55 254.691 231.056C249.376 213.561 225.472 208.03 225.472 208.03C230.345 208.653 237.945 209.399 239.584 208.468C241.638 207.254 240.912 204.979 237.903 204.609L237.913 204.554Z" fill="#CCEFF6"/>
<path d="M134.667 209.436C134.219 209.374 133.775 209.285 133.338 209.169C134.441 205.83 135.393 203.477 135.436 203.422C135.61 203.003 135.701 202.555 135.703 202.101H136.945C136.945 202.653 137.078 203.196 137.333 203.685C137.588 204.174 137.958 204.595 138.411 204.91C139.652 205.804 140.834 206.777 141.949 207.824C140.215 208.945 138.193 209.541 136.128 209.538C135.639 209.538 135.151 209.504 134.667 209.436V209.436Z" fill="#006B99"/>
<path d="M358.381 186.615H318.137C321.561 181.754 338.145 181.576 338.145 181.576C338.145 181.576 354.982 181.754 358.381 186.615Z" fill="white"/>
<path d="M70.0979 194.374H120.035C119.953 196.3 119.891 197.843 119.864 198.797C119.864 199.529 119.823 200.668 119.816 202.101H70.0522V194.374H70.0979Z" fill="#006B99"/>
<path d="M132.206 237.573C133.88 243.646 134.608 249.939 134.366 256.233C133.124 267.845 119.781 270.752 119.22 270.868C118.994 270.915 118.765 270.94 118.535 270.944C117.677 270.957 116.846 270.647 116.206 270.077C115.565 269.507 115.162 268.717 115.076 267.864C114.99 267.011 115.227 266.157 115.741 265.471C116.254 264.784 117.007 264.315 117.85 264.157C117.925 264.157 126.867 262.103 127.579 255.505C127.707 249.951 127.015 244.407 125.525 239.054C124.397 234.574 123.669 230.003 123.351 225.394C123.139 218.776 125.696 210.25 127.46 205.17C128.905 207.142 130.978 208.561 133.338 209.196C131.456 214.322 130.391 219.713 130.184 225.17C130.504 229.355 131.181 233.504 132.206 237.573V237.573Z" fill="#006B99"/>
<path d="M289.701 143.829C322.186 143.829 348.52 117.503 348.52 85.0277C348.52 52.5526 322.186 26.2263 289.701 26.2263C257.216 26.2263 230.882 52.5526 230.882 85.0277C230.882 117.503 257.216 143.829 289.701 143.829Z" stroke="#006B99" stroke-width="2.4" stroke-linecap="round" stroke-linejoin="round"/>
<path d="M339.017 85.0209C339.02 94.7739 336.13 104.309 330.712 112.42C325.294 120.53 317.592 126.853 308.58 130.587C299.567 134.322 289.649 135.3 280.081 133.399C270.512 131.498 261.722 126.803 254.822 119.908C247.923 113.012 243.224 104.226 241.32 94.6609C239.416 85.0955 240.392 75.1804 244.125 66.1696C247.858 57.1588 254.18 49.4572 262.292 44.0387C270.403 38.6202 279.94 35.7283 289.696 35.7288H289.71C302.787 35.7288 315.328 40.922 324.575 50.1661C333.822 59.4102 339.017 71.9478 339.017 85.0209V85.0209Z" stroke="#006B99" stroke-width="2.4" stroke-linecap="round" stroke-linejoin="round"/>
<path d="M330.322 194.965V199.687" stroke="#006B99" stroke-width="2.4" stroke-linecap="round" stroke-linejoin="round"/>
<path d="M338.145 194.965H347.276C349.752 194.855 352.137 193.998 354.117 192.508C356.098 191.018 357.581 188.964 358.372 186.615H318.127C318.918 188.963 320.401 191.018 322.381 192.508C324.361 193.998 326.746 194.855 329.221 194.965H338.136" stroke="#006B99" stroke-width="2.4" stroke-linecap="round" stroke-linejoin="round"/>
<path d="M346.196 194.965V199.687" stroke="#006B99" stroke-width="2.4" stroke-linecap="round" stroke-linejoin="round"/>
<path d="M358.381 186.615C354.957 181.754 338.145 181.576 338.145 181.576C338.145 181.576 321.545 181.754 318.137 186.615" stroke="#006B99" stroke-width="2.4" stroke-linecap="round" stroke-linejoin="round"/>
<path d="M376.983 209.353C376.869 208.813 376.725 208.28 376.552 207.756C376.059 206.242 375.178 204.884 373.997 203.816C372.815 202.749 371.374 202.011 369.818 201.674C368.922 201.422 368.005 201.254 367.078 201.175C362.164 200.593 352.925 200.415 346.207 200.367H330.329C322.038 200.421 309.697 200.682 306.707 201.674C304.873 202.07 303.204 203.017 301.925 204.389C300.645 205.76 299.816 207.49 299.548 209.347L376.983 209.353Z" stroke="#006B99" stroke-width="2.4" stroke-linecap="round" stroke-linejoin="round"/>
<path d="M280.465 287.066C278.059 267.482 287.528 258.036 287.528 258.036C286.63 253.726 286.625 249.278 287.512 244.965C288.399 240.653 290.159 236.568 292.684 232.961C291.922 224.511 294.366 216.084 299.532 209.353" stroke="#006B99" stroke-width="2.4" stroke-linecap="round" stroke-linejoin="round"/>
<path d="M380.515 215.049C382.241 218.471 383.373 222.161 383.861 225.962C384.158 228.295 384.158 230.656 383.861 232.988C386.381 236.593 388.137 240.674 389.023 244.981C389.908 249.288 389.904 253.731 389.011 258.036C389.011 258.036 398.459 267.482 396.058 287.066C396.058 287.066 404.821 299.405 402.415 313.346C402.415 313.346 394.373 327.057 338.27 327.057C288.436 327.057 274.126 313.346 274.126 313.346C273.389 308.714 273.662 303.977 274.927 299.46" stroke="#006B99" stroke-width="2.4" stroke-linecap="round" stroke-linejoin="round"/>
<path d="M376.983 209.353C378.355 211.122 379.538 213.028 380.514 215.042" stroke="#006B99" stroke-width="2.4" stroke-linecap="round" stroke-linejoin="round"/>
<path d="M294.577 259.668C294.577 259.668 308.668 264.746 334.168 264.773C367.496 264.807 381.213 259.668 381.213 259.668" stroke="#006B99" stroke-width="2.4" stroke-linecap="round" stroke-linejoin="round"/>
<path d="M301.688 233.502C312.677 235.371 323.811 236.26 334.958 236.156C361.226 236.156 373.411 233.502 373.411 233.502" stroke="#006B99" stroke-width="2.4" stroke-linecap="round" stroke-linejoin="round"/>
<path d="M291.835 287.771C305.489 292.264 319.795 294.454 334.168 294.25C367.496 294.25 383.27 287.771 383.27 287.771" stroke="#006B99" stroke-width="2.4" stroke-linecap="round" stroke-linejoin="round"/>
<path d="M225.474 208.023C225.474 208.023 249.37 213.555 254.693 231.049C260.016 248.543 255.949 273.855 266.26 289.163C268.777 292.885 271.68 296.332 274.92 299.446C279.419 303.9 284.626 307.576 290.329 310.325" stroke="#006B99" stroke-width="2.4" stroke-linecap="round" stroke-linejoin="round"/>
<path d="M237.913 204.554C243.706 205.033 258.434 212.382 262.226 224.864C267.54 242.365 265.538 266.302 275.852 281.61C277.174 283.6 278.687 285.457 280.369 287.155C283.711 290.764 288.16 293.159 293.013 293.962" stroke="#006B99" stroke-width="2.4" stroke-linecap="round" stroke-linejoin="round"/>
<path d="M367.067 201.177C367.412 199.872 368.158 198.709 369.198 197.849C370.239 196.989 371.523 196.477 372.87 196.385C377.047 196.387 381.184 197.198 385.053 198.772" stroke="#006B99" stroke-width="2.4" stroke-linecap="round" stroke-linejoin="round"/>
<path d="M380.515 215.049C380.604 214.728 382.907 206.426 387.509 209.05C389.258 210.045 389.86 212.829 389.888 215.529C389.949 221.375 391.485 225.75 394.64 227.498C396.601 228.58 400.347 228.993 401.559 232.377C402.771 235.761 401.42 242.418 404.298 245.677C407.177 248.935 418.013 247.192 413.886 262.813" stroke="#006B99" stroke-width="2.4" stroke-linecap="round" stroke-linejoin="round"/>
<path d="M383.868 225.962C385.182 228.017 387.009 229.695 389.168 230.83C392.364 232.267 387.974 236.156 391.848 241.377C395.14 245.821 399.817 243.956 399.995 248.748C400.173 253.541 395.489 259.867 399.824 261.772C402.696 263.018 409.621 263.356 413.92 263.246C415.12 263.286 416.32 263.161 417.485 262.874C420.225 261.334 421.017 257.582 419.392 250.261C417.766 242.941 411.918 242.797 409.119 239.536C406.321 236.275 407.624 229.632 406.38 226.238C405.136 222.845 401.5 222.311 399.461 221.357C397.423 220.403 395.793 217.834 394.711 209.39C393.757 201.946 388.682 198.587 385.11 198.826C384.641 198.854 384.18 198.951 383.74 199.114C380.215 200.483 377.903 204.819 377.026 207.656" stroke="#006B99" stroke-width="2.4" stroke-linecap="round" stroke-linejoin="round"/>
<path d="M237.906 204.6C237.32 204.534 236.729 204.534 236.143 204.6C233.845 204.828 228.957 205.807 225.415 206.547C225.239 206.581 225.082 206.677 224.972 206.817C224.861 206.957 224.804 207.132 224.812 207.31C224.819 207.488 224.89 207.658 225.012 207.789C225.134 207.919 225.299 208.001 225.476 208.021C230.35 208.644 237.949 209.39 239.588 208.459C241.629 207.24 240.901 204.965 237.906 204.6Z" stroke="#006B99" stroke-width="2.4" stroke-linecap="round" stroke-linejoin="round"/>
<path d="M274.11 313.346C283.318 327.057 326.976 340.388 381.213 331.258C436.631 321.922 402.415 313.346 402.415 313.346" stroke="#006B99" stroke-width="2.4" stroke-linecap="round" stroke-linejoin="round"/>
<path d="M291.483 79.1719C291.699 79.2339 291.91 79.3101 292.116 79.4001" stroke="#006B99" stroke-width="2.4" stroke-linecap="round" stroke-linejoin="round"/>
<path d="M295.2 82.2825C295.744 83.3605 295.957 84.5759 295.811 85.7748C295.665 86.9738 295.166 88.1025 294.378 89.0181C293.591 89.9338 292.549 90.5954 291.385 90.9192C290.221 91.243 288.987 91.2145 287.839 90.8372C286.692 90.46 285.682 89.7509 284.937 88.7998C284.192 87.8487 283.746 86.6981 283.656 85.4937C283.565 84.2893 283.834 83.0851 284.428 82.0334C285.022 80.9816 285.915 80.1296 286.993 79.5851C287.085 79.5372 287.178 79.4938 287.274 79.4504" stroke="#006B99" stroke-width="2.4" stroke-linecap="round" stroke-linejoin="round"/>
<path d="M289.742 36.5981V42.0819" stroke="#006B99" stroke-width="2.4" stroke-linecap="round" stroke-linejoin="round"/>
<path d="M289.742 127.766V133.25" stroke="#006B99" stroke-width="2.4" stroke-linecap="round" stroke-linejoin="round"/>
<path d="M241.297 85.0276H246.792" stroke="#006B99" stroke-width="2.4" stroke-linecap="round" stroke-linejoin="round"/>
<path d="M333.182 85.0276H338.674" stroke="#006B99" stroke-width="2.4" stroke-linecap="round" stroke-linejoin="round"/>
<path d="M255.629 50.9248L259.512 54.8043" stroke="#006B99" stroke-width="2.4" stroke-linecap="round" stroke-linejoin="round"/>
<path d="M320.118 115.386L323.999 119.267" stroke="#006B99" stroke-width="2.4" stroke-linecap="round" stroke-linejoin="round"/>
<path d="M255.629 119.411L259.512 115.53" stroke="#006B99" stroke-width="2.4" stroke-linecap="round" stroke-linejoin="round"/>
<path d="M320.6 54.4621L324.48 50.5803" stroke="#006B99" stroke-width="2.4" stroke-linecap="round" stroke-linejoin="round"/>
<path d="M270.097 40.8679L272.334 45.8793" stroke="#006B99" stroke-width="2.4" stroke-linecap="round" stroke-linejoin="round"/>
<path d="M307.255 124.126L309.497 129.137" stroke="#006B99" stroke-width="2.4" stroke-linecap="round" stroke-linejoin="round"/>
<path d="M245.599 104.831L250.612 102.595" stroke="#006B99" stroke-width="2.4" stroke-linecap="round" stroke-linejoin="round"/>
<path d="M329.507 67.4034L334.517 65.1602" stroke="#006B99" stroke-width="2.4" stroke-linecap="round" stroke-linejoin="round"/>
<path d="M311.321 41.5525L308.874 46.468" stroke="#006B99" stroke-width="2.4" stroke-linecap="round" stroke-linejoin="round"/>
<path d="M270.667 123.167L268.218 128.081" stroke="#006B99" stroke-width="2.4" stroke-linecap="round" stroke-linejoin="round"/>
<path d="M246.358 63.3164L251.275 65.765" stroke="#006B99" stroke-width="2.4" stroke-linecap="round" stroke-linejoin="round"/>
<path d="M328.607 104.261L333.524 106.709" stroke="#006B99" stroke-width="2.4" stroke-linecap="round" stroke-linejoin="round"/>
<path d="M229.745 288.828C229.441 289.482 228.99 290.056 228.428 290.507C223.634 294.615 207.883 297.691 189.256 297.691C170.96 297.691 155.472 294.763 150.356 290.733C149.852 290.418 149.428 289.991 149.115 289.486C148.802 288.981 148.61 288.41 148.553 287.819" stroke="#006B99" stroke-width="2.4" stroke-linecap="round" stroke-linejoin="round"/>
<path d="M224.506 300.295C217.464 303.262 204.313 305.231 189.256 305.231C174.199 305.231 161.039 303.25 154.004 300.295" stroke="#006B99" stroke-width="2.4" stroke-linecap="round" stroke-linejoin="round"/>
<path d="M163.733 343.083C160.262 340.913 157.339 337.971 155.191 334.487C154.063 332.716 153.057 330.87 152.18 328.962C151.314 327.042 150.637 325.043 150.157 322.992C148.311 313.784 147.621 304.382 148.103 295.003C148.199 291.849 148.35 289.314 148.459 287.812C148.528 286.847 148.575 286.311 148.575 286.311" stroke="#006B99" stroke-width="2.4" stroke-linecap="round" stroke-linejoin="round"/>
<path d="M229.93 285.688C229.93 285.688 232.708 315.5 226.433 328.962C225.444 331.105 224.286 333.165 222.97 335.124C216.628 344.48 207.351 348.277 189.373 347.997H189.256C177.632 348.175 169.645 346.627 163.74 343.047" stroke="#006B99" stroke-width="2.4" stroke-linecap="round" stroke-linejoin="round"/>
<path d="M217.532 238.219C218.586 238.641 219.534 239.288 220.311 240.116C221.087 240.944 221.672 241.933 222.025 243.011C222.084 243.236 222.127 243.465 222.155 243.696C223.148 251.585 207.468 262.107 186.334 267.557C165.201 273.006 146.434 271.375 143.451 264.02C143.352 263.799 143.272 263.57 143.211 263.335C141.842 258.086 148.375 251.489 159.236 246.005C165.517 242.904 172.109 240.477 178.902 238.767C195.262 234.538 210.23 234.565 217.532 238.219Z" stroke="#006B99" stroke-width="2.4" stroke-linecap="round" stroke-linejoin="round"/>
<path d="M148.882 263.91C147.126 257.103 160.807 247.685 179.436 242.886C198.065 238.087 214.59 239.705 216.355 246.519" stroke="#006B99" stroke-width="2.4" stroke-linecap="round" stroke-linejoin="round"/>
<path d="M220.331 257.644C210.496 264.849 199.349 270.065 187.514 272.999C175.406 276.314 162.734 277.031 150.329 275.103" stroke="#006B99" stroke-width="2.4" stroke-linecap="round" stroke-linejoin="round"/>
<path d="M150.39 290.733C149.623 288.711 148.922 286.626 148.292 284.611C146.225 277.869 144.601 271 143.43 264.047" stroke="#006B99" stroke-width="2.4" stroke-linecap="round" stroke-linejoin="round"/>
<path d="M222.326 243.696C222.326 243.696 223.011 245.574 223.945 248.616C225.647 254.05 227.073 259.566 228.216 265.145C228.599 267.037 228.937 268.963 229.211 270.868C229.533 273.082 229.766 275.275 229.896 277.386C230.081 280.129 229.964 282.884 229.546 285.601C229.554 285.699 229.538 285.798 229.498 285.888C229.197 287.5 228.814 289.035 228.428 290.482" stroke="#006B99" stroke-width="2.4" stroke-linecap="round" stroke-linejoin="round"/>
<path d="M222.326 243.696C226.002 241.042 229.926 238.749 234.043 236.85C236.979 235.834 247.142 233.477 251.187 242.874C251.894 244.566 252.367 246.347 252.593 248.166C254.615 262.822 229.93 277.377 229.93 277.377" stroke="#006B99" stroke-width="2.4" stroke-linecap="round" stroke-linejoin="round"/>
<path d="M224.506 248.431C227.66 246.042 231.012 243.926 234.525 242.105C235.92 241.589 237.368 241.232 238.844 241.042C242.43 240.631 246.737 241.726 246.765 249.583C246.806 259.948 229.772 270.834 229.772 270.834" stroke="#006B99" stroke-width="2.4" stroke-linecap="round" stroke-linejoin="round"/>
<path d="M217.525 238.226C221.126 235.968 225.088 234.347 229.238 233.434C235.703 232.343 248.685 231.966 251.18 242.872" stroke="#006B99" stroke-width="2.4" stroke-linecap="round" stroke-linejoin="round"/>
<path d="M238.844 241.042C242.268 242.283 242.683 245.149 242.211 249.405C241.526 255.718 233.009 261.895 228.243 265.172" stroke="#006B99" stroke-width="2.4" stroke-linecap="round" stroke-linejoin="round"/>
<path d="M163.74 343.083C163.74 343.289 163.982 347.456 174.293 351.07C182.885 354.074 220.358 357.72 244.398 347.369C264.33 338.795 222.99 335.169 222.99 335.169" stroke="#006B99" stroke-width="2.4" stroke-linecap="round" stroke-linejoin="round"/>
<path d="M148.149 162.154L172.044 117.882C172.336 117.328 172.48 116.709 172.462 116.083C172.443 115.457 172.264 114.847 171.94 114.311C171.617 113.776 171.16 113.332 170.615 113.025C170.07 112.717 169.454 112.556 168.828 112.556H163.418C162.159 112.556 160.936 112.98 159.948 113.761L156.94 116.127C155.241 117.467 153.151 118.215 150.988 118.256C148.825 118.297 146.708 117.63 144.96 116.356L141.196 113.617C140.239 112.923 139.086 112.549 137.904 112.549H45.8712C45.245 112.55 44.6297 112.713 44.0848 113.021C43.5399 113.33 43.084 113.774 42.7612 114.31C42.4383 114.847 42.2596 115.457 42.2421 116.083C42.2247 116.709 42.3692 117.329 42.6617 117.882L66.5573 162.136" stroke="#006B99" stroke-width="2.4" stroke-linecap="round" stroke-linejoin="round"/>
<path d="M70.0478 194.374V188.169L58.5086 172.135C57.8345 171.192 57.4333 170.082 57.3488 168.926C57.2643 167.77 57.4999 166.613 58.0298 165.582C58.5596 164.551 59.3632 163.685 60.3525 163.081C61.3417 162.476 62.4784 162.155 63.6379 162.154H110.34C111.742 162.154 113.13 162.43 114.426 162.967C115.721 163.504 116.898 164.29 117.889 165.282C118.88 166.273 119.666 167.45 120.202 168.745C120.739 170.04 121.015 171.428 121.014 172.829C121.014 173.005 121.014 173.181 121.014 173.356C120.67 180.291 120.259 188.902 120.026 194.385" stroke="#006B99" stroke-width="2.4" stroke-linecap="round" stroke-linejoin="round"/>
<path d="M119.816 202.101C119.768 208.187 119.816 219.586 119.816 228.1C119.828 231.037 118.685 233.861 116.632 235.962C114.579 238.063 111.782 239.272 108.845 239.328C107.603 239.328 106.432 239.369 105.457 239.369C91.3252 239.19 77.2258 237.964 63.2749 235.702L62.9713 235.654C61.7962 235.474 60.6945 234.971 59.79 234.199C58.8855 233.428 58.214 232.42 57.8511 231.288C57.4827 230.153 57.3868 228.947 57.5713 227.768C57.7557 226.589 58.2152 225.47 58.9126 224.502L70.0409 209.002V202.101" stroke="#006B99" stroke-width="2.4" stroke-linecap="round" stroke-linejoin="round"/>
<path d="M143.396 190.871L156.18 172.138C156.856 171.197 157.26 170.088 157.348 168.933C157.436 167.778 157.204 166.621 156.678 165.589C156.151 164.556 155.351 163.689 154.365 163.081C153.378 162.473 152.243 162.149 151.084 162.143H146.126C144.799 162.14 143.501 162.538 142.402 163.282C141.303 164.027 140.453 165.085 139.963 166.319C137.74 173.362 136.463 180.669 136.165 188.048" stroke="#006B99" stroke-width="2.4" stroke-linecap="round" stroke-linejoin="round"/>
<path d="M140.2 237.669C138.655 237.45 137.238 236.688 136.203 235.521C135.168 234.353 134.582 232.855 134.55 231.295C134.407 224.084 134.276 213.472 134.667 209.436" stroke="#006B99" stroke-width="2.4" stroke-linecap="round" stroke-linejoin="round"/>
<path d="M155.41 223.981L155.787 224.501C156.482 225.473 156.939 226.595 157.122 227.775C157.305 228.956 157.209 230.163 156.841 231.3C156.472 232.424 155.803 233.426 154.906 234.198C154.005 234.97 152.905 235.473 151.733 235.652L151.397 235.706C150.648 235.836 149.929 236.042 149.016 236.284" stroke="#006B99" stroke-width="2.4" stroke-linecap="round" stroke-linejoin="round"/>
<path d="M155.191 334.487C139.7 339.239 123.559 341.533 107.356 341.287C76.131 341.287 58.7754 334.391 55.2782 332.944C54.3163 332.549 53.5496 331.79 53.1451 330.832C52.7406 329.874 52.7311 328.795 53.1188 327.83L54.4884 324.35L50.5895 320.756C38.0345 312.173 36.1901 297.949 37.0461 285.679C38.5071 264.038 63.1788 236.256 63.1788 236.256" stroke="#006B99" stroke-width="2.4" stroke-linecap="round" stroke-linejoin="round"/>
<path d="M151.502 236.245C151.502 236.245 154.894 240.063 159.236 245.971" stroke="#006B99" stroke-width="2.4" stroke-linecap="round" stroke-linejoin="round"/>
<path d="M45.7754 278.538C50.8841 260.784 67.806 241.736 67.806 241.736" stroke="#006B99" stroke-width="2.4" stroke-linecap="round" stroke-linejoin="round"/>
<path d="M149.706 323.116C144.061 325.169 130.951 328.271 107.384 328.271C93.1182 328.307 78.9196 326.315 65.2152 322.353C61.9963 321.387 59.0378 319.705 56.5614 317.433C46.7753 310.735 44.2734 300.227 44.2734 290.371V289.834C44.2734 288.54 44.3351 287.265 44.4241 286.01" stroke="#006B99" stroke-width="2.4" stroke-linecap="round" stroke-linejoin="round"/>
<path d="M61.1953 166.551H107.35" stroke="#006B99" stroke-width="2.4" stroke-linecap="round" stroke-linejoin="round"/>
<path d="M61.1953 230.43C64.9482 231.27 68.7504 231.872 72.5793 232.233C77.6469 232.598 107.35 234.287 107.35 234.287" stroke="#006B99" stroke-width="2.4" stroke-linecap="round" stroke-linejoin="round"/>
<path d="M75.8984 188.048H103.319" stroke="#006B99" stroke-width="2.4" stroke-linecap="round" stroke-linejoin="round"/>
<path d="M84.269 208.53H105.457" stroke="#006B99" stroke-width="2.4" stroke-linecap="round" stroke-linejoin="round"/>
<path d="M142.41 188.048H144.46" stroke="#006B99" stroke-width="2.4" stroke-linecap="round" stroke-linejoin="round"/>
<path d="M147.998 295.003C137.075 295.984 122.964 296.566 107.594 296.566C72.8783 296.566 44.7368 293.556 44.7368 289.834C44.7368 286.112 72.8532 283.102 107.596 283.102C123.244 283.102 136.868 283.711 147.868 284.727" stroke="#006B99" stroke-width="2.4" stroke-linecap="round" stroke-linejoin="round"/>
<path d="M55.2715 332.944C57.992 336.665 61.885 339.362 66.3244 340.603C88.371 347.367 145.72 349.094 163.733 343.083" stroke="#006B99" stroke-width="2.4" stroke-linecap="round" stroke-linejoin="round"/>
<path d="M400.673 276.201H437.473" stroke="#006B99" stroke-width="2.4" stroke-linecap="round" stroke-linejoin="round"/>
<path d="M240.743 276.201H255.047" stroke="#006B99" stroke-width="2.4" stroke-linecap="round" stroke-linejoin="round"/>
<path d="M3.75488 276.201H35.0237" stroke="#006B99" stroke-width="2.4" stroke-linecap="round" stroke-linejoin="round"/>
<path d="M85.3165 108.667C84.2959 106.845 83.7576 104.792 83.7529 102.704C82.9859 77.145 139.356 104.986 139.885 84.0185C140.415 63.0511 93.943 91.7501 92.1259 70.3491C90.3089 48.9481 135.927 70.1095 135.817 53.7951C135.708 37.4808 98.3669 55.6048 97.4675 42.3598C96.5681 29.1148 131.024 39.5643 131.024 28.6037C131.024 17.643 113.346 24.9296 111.194 15.5778C108.833 5.35878 120.875 2.43092 125.255 5.18763" stroke="#006B99" stroke-width="2.4" stroke-linecap="round" stroke-linejoin="round"/>
<path d="M99.8896 153.74C94.8676 129.5 138.885 150.88 138.885 128.081C138.885 111.472 109.509 119.692 93.2583 115.502" stroke="#006B99" stroke-width="2.4" stroke-linecap="round" stroke-linejoin="round"/>
</svg>
