<svg width="22" height="23" viewBox="0 0 22 23" fill="none" xmlns="http://www.w3.org/2000/svg">
<path d="M19.7042 4.3313C20.2268 5.01596 20.6691 5.75978 21.0224 6.54783L11.0024 14.0335L6.81485 11.3731V8.17258L11.0024 10.8329L19.7042 4.3313Z" fill="#21A038"/>
<path d="M2.54125 11.1472C2.54125 11.0036 2.54471 10.8609 2.55162 10.719L0.0138213 10.593C0.00518345 10.7768 3.06681e-06 10.9625 3.06681e-06 11.1498C-0.0010767 12.6133 0.282976 14.0627 0.835874 15.4146C1.38877 16.7667 2.19962 17.9948 3.22192 19.0284L5.02204 17.205C4.23511 16.4107 3.61084 15.4666 3.1851 14.427C2.75936 13.3874 2.54056 12.2727 2.54125 11.1472Z" fill="url(#paint0_linear_605_282)"/>
<path d="M11.0001 2.57493C11.1418 2.57493 11.2825 2.58018 11.4224 2.58718L11.5494 0.0143596C11.3675 0.00560548 11.1844 0.00122897 11.0001 0.00122897C9.55529 -0.000556648 8.12444 0.286904 6.7896 0.847103C5.45476 1.4073 4.24225 2.22921 3.22171 3.26563L5.02183 5.08998C5.80562 4.2922 6.73728 3.6593 7.76325 3.22768C8.78922 2.79606 9.88921 2.57422 11.0001 2.57493Z" fill="url(#paint1_linear_605_282)"/>
<path d="M11.0001 19.7204C10.8585 19.7204 10.7177 19.7204 10.5769 19.7091L10.4499 22.281C10.6325 22.2903 10.8159 22.295 11.0001 22.295C12.4443 22.2965 13.8745 22.0089 15.2086 21.4485C16.5428 20.8882 17.7545 20.0662 18.7742 19.0298L16.9776 17.2063C16.1936 18.0037 15.2621 18.6362 14.2363 19.0677C13.2105 19.4991 12.1107 19.721 11.0001 19.7204Z" fill="url(#paint2_linear_605_282)"/>
<path d="M15.7687 4.07067L17.9074 2.47304C15.9526 0.868824 13.5124 -0.00445314 10.9971 1.7077e-05V2.57459C12.7004 2.57245 14.3641 3.09412 15.7687 4.07067Z" fill="url(#paint3_linear_605_282)"/>
<path d="M22 11.1476C22.0013 10.4778 21.9435 9.80923 21.8272 9.1499L19.4596 10.9182C19.4596 10.9944 19.4596 11.0706 19.4596 11.1476C19.4602 12.3454 19.2124 13.53 18.7324 14.6245C18.2524 15.7191 17.5507 16.6992 16.673 17.5013L18.3807 19.4141C19.5218 18.3701 20.4337 17.0947 21.0572 15.6707C21.6807 14.2466 22.0019 12.7056 22 11.1476Z" fill="#21A038"/>
<path d="M11.0003 19.7208C9.81836 19.7212 8.64945 19.47 7.56929 18.9836C6.48919 18.4971 5.52191 17.7861 4.73013 16.8967L2.84363 18.6265C3.87365 19.7832 5.13206 20.7074 6.53724 21.3395C7.94241 21.9715 9.46296 22.2972 11.0003 22.2953V19.7208Z" fill="url(#paint4_linear_605_282)"/>
<path d="M5.32783 4.79363L3.62099 2.88086C2.47956 3.92467 1.56737 5.19998 0.943563 6.62407C0.319768 8.04815 -0.00170068 9.58921 6.76615e-06 11.1473H2.54126C2.54074 9.94959 2.78852 8.765 3.26855 7.67046C3.74859 6.57595 4.45016 5.59583 5.32783 4.79363Z" fill="url(#paint5_linear_605_282)"/>
<defs>
<linearGradient id="paint0_linear_605_282" x1="3.73587" y1="18.7072" x2="0.892673" y2="10.5972" gradientUnits="userSpaceOnUse">
<stop offset="0.14" stop-color="#F1E813"/>
<stop offset="0.3" stop-color="#E6E418"/>
<stop offset="0.58" stop-color="#C9DA26"/>
<stop offset="0.89" stop-color="#A2CC39"/>
</linearGradient>
<linearGradient id="paint1_linear_605_282" x1="3.94729" y1="3.72084" x2="11.1225" y2="1.02276" gradientUnits="userSpaceOnUse">
<stop offset="0.06" stop-color="#0FA7DF"/>
<stop offset="0.54" stop-color="#0098F8"/>
<stop offset="0.92" stop-color="#0290EA"/>
</linearGradient>
<linearGradient id="paint2_linear_605_282" x1="10.2824" y1="20.7412" x2="18.3794" y2="18.9362" gradientUnits="userSpaceOnUse">
<stop offset="0.12" stop-color="#A2CC39"/>
<stop offset="0.28" stop-color="#86C239"/>
<stop offset="0.87" stop-color="#219F38"/>
</linearGradient>
<linearGradient id="paint3_linear_605_282" x1="10.4685" y1="0.862294" x2="17.3981" y2="2.97235" gradientUnits="userSpaceOnUse">
<stop offset="0.06" stop-color="#0290EA"/>
<stop offset="0.79" stop-color="#0C89CA"/>
</linearGradient>
<linearGradient id="paint4_linear_605_282" x1="3.4811" y1="18.3131" x2="11.0308" y2="21.0973" gradientUnits="userSpaceOnUse">
<stop offset="0.13" stop-color="#F1E813"/>
<stop offset="0.3" stop-color="#EAE616"/>
<stop offset="0.53" stop-color="#D8DF1F"/>
<stop offset="0.8" stop-color="#BAD52D"/>
<stop offset="0.98" stop-color="#A2CC39"/>
</linearGradient>
<linearGradient id="paint5_linear_605_282" x1="0.946712" y1="11.459" x2="4.03843" y2="3.52309" gradientUnits="userSpaceOnUse">
<stop offset="0.07" stop-color="#A2CC39"/>
<stop offset="0.26" stop-color="#81C45E"/>
<stop offset="0.92" stop-color="#0FA7DF"/>
</linearGradient>
</defs>
</svg>
